<?xml version="1.0" standalone="no"?>
<!DOCTYPE svg PUBLIC "-//W3C//DTD SVG 20010904//EN"
 "http://www.w3.org/TR/2001/REC-SVG-20010904/DTD/svg10.dtd">
<svg version="1.0" xmlns="http://www.w3.org/2000/svg"
 width="2000.000000pt" height="1200.000000pt" viewBox="0 0 2000.000000 1200.000000"
 preserveAspectRatio="xMidYMid meet">

<g transform="translate(0.000000,1200.000000) scale(0.100000,-0.100000)"
fill="#000000" stroke="none">
<path d="M6960 6252 c-106 -12 -200 -55 -273 -126 -102 -98 -143 -206 -135
-358 7 -117 60 -230 144 -307 109 -100 181 -121 413 -121 l164 0 -59 63 c-33
34 -66 73 -75 86 -14 22 -22 24 -105 26 -106 3 -168 25 -227 83 -122 118 -119
300 8 411 68 60 88 63 335 65 248 1 301 -4 370 -39 117 -60 166 -172 136 -316
-9 -40 -16 -77 -16 -81 0 -4 44 -6 97 -5 l98 2 13 55 c7 32 11 95 9 150 -2 78
-8 106 -30 153 -51 111 -129 185 -249 234 -62 25 -68 26 -328 27 -146 1 -276
0 -290 -2z"/>
<path d="M7770 6251 c0 -6 14 -21 31 -33 17 -13 50 -52 74 -89 l44 -65 83 -2
c167 -5 250 -48 309 -162 19 -36 24 -61 24 -125 0 -69 -4 -86 -27 -126 -33
-56 -77 -95 -138 -122 -41 -18 -68 -20 -280 -21 -246 -2 -302 5 -362 42 -117
73 -164 202 -123 338 8 27 15 53 15 57 0 4 -44 6 -97 5 l-97 -3 -8 -30 c-71
-253 36 -477 271 -566 52 -20 78 -21 336 -24 308 -2 379 5 474 53 83 41 136
94 176 175 95 194 56 431 -94 569 -98 90 -216 123 -458 127 -75 1 -141 5 -145
7 -4 3 -8 1 -8 -5z"/>
<path d="M8816 6194 c-71 -23 -124 -61 -154 -113 -23 -39 -27 -57 -27 -121 1
-137 55 -192 245 -250 147 -46 160 -53 160 -95 0 -44 -29 -65 -90 -65 -51 0
-145 40 -198 85 -32 26 -33 27 -52 10 -11 -10 -39 -43 -62 -73 l-42 -55 39
-33 c94 -80 218 -120 345 -111 194 13 305 152 259 322 -25 91 -87 137 -247
184 -57 16 -114 37 -127 45 -31 20 -33 58 -4 87 32 32 127 22 205 -20 32 -17
63 -31 69 -31 7 0 33 32 59 70 l46 70 -47 30 c-110 70 -272 98 -377 64z"/>
<path d="M10295 6196 c-120 -29 -222 -115 -278 -234 -30 -62 -32 -75 -32 -172
0 -97 2 -110 32 -172 105 -223 364 -311 589 -201 69 34 157 126 192 200 24 53
27 69 27 173 0 104 -3 120 -27 173 -53 112 -171 209 -289 236 -58 14 -152 12
-214 -3z m193 -182 c47 -19 88 -58 115 -109 30 -57 30 -173 0 -231 -86 -163
-296 -166 -385 -7 -67 118 -21 285 94 342 51 25 123 27 176 5z"/>
<path d="M9270 5785 l0 -406 98 3 97 3 3 153 3 153 142 -3 142 -3 3 -153 3
-153 97 3 97 3 0 400 0 400 -97 3 -98 3 -2 -163 -3 -163 -142 -3 -143 -3 -2
163 -3 163 -97 3 -98 3 0 -406z"/>
<path d="M10860 5785 l0 -406 98 3 97 3 3 123 3 122 49 0 49 0 87 -125 87
-125 113 0 c91 0 114 3 114 14 0 8 -41 72 -91 142 -83 117 -90 129 -73 139 11
5 36 27 56 48 51 51 72 126 65 224 l-5 73 99 0 99 0 2 -317 3 -318 97 -3 98
-3 2 318 3 318 113 3 112 3 0 -321 0 -320 298 2 297 3 0 85 0 85 -197 3 -198
2 0 70 0 70 173 2 172 3 0 80 0 80 -172 3 -173 2 0 70 0 70 193 2 192 3 0 85
0 85 -615 0 -615 0 -5 -53 -5 -54 -29 31 c-16 17 -55 41 -85 53 -51 20 -77 23
-283 26 l-228 4 0 -407z m418 216 c33 -18 48 -82 31 -128 -20 -52 -47 -63
-156 -63 l-93 0 0 106 0 107 99 -6 c54 -3 108 -10 119 -16z"/>
<path d="M12770 5785 l0 -406 98 3 97 3 3 123 3 122 49 0 49 0 87 -125 87
-125 113 0 c91 0 114 3 114 14 0 8 -41 72 -91 142 -83 117 -90 129 -73 139 11
5 36 27 56 48 64 64 85 185 53 295 -21 70 -64 116 -133 144 -52 20 -77 22
-284 26 l-228 4 0 -407z m418 216 c33 -18 48 -82 31 -128 -20 -52 -47 -63
-156 -63 l-93 0 0 106 0 107 99 -6 c54 -3 108 -10 119 -16z"/>
</g>
</svg>
